# xmcd
#
# Track frame offsets: 
#        150
#        23397
#        43380
#        64754
#        79662
#        94337
#        111416
#        135531
#        150024
#        167593
#        186467
#        200691
#        216607
#        236405
#
# Disc length: 3375 seconds
#
# Revision: 0
# Processed by: cddbd v1.5.2PL0 Copyright (c) Steve Scherf et al.
# Submitted via: ExactAudioCopyFreeDBPlugin 1.0
#
DISCID=c00d2d0e
DTITLE=Chicken Legs Weaver - Sometime Man
DYEAR=2015
DGENRE=Blues
TTITLE0=Crazy Dawn
TTITLE1=Ezzalee
TTITLE2=Falling Lane
TTITLE3=(God's Gonna) Cut You Down
TTITLE4=Me And The Devil
TTITLE5=Shadow Factory
TTITLE6=Sometime Man
TTITLE7=Susie's Pantry
TTITLE8=Treat A Stranger Right
TTITLE9=Codeine
TTITLE10=Central Line
TTITLE11=Mysterious Ways
TTITLE12=Rolling Sea
TTITLE13=Ain't No Grave
EXTD=
EXTT0=
EXTT1=
EXTT2=
EXTT3=
EXTT4=
EXTT5=
EXTT6=
EXTT7=
EXTT8=
EXTT9=
EXTT10=
EXTT11=
EXTT12=
EXTT13=
PLAYORDER=
